# xmcd
#
# Track frame offsets: 
#        150
#        14846
#        29877
#        41731
#        64285
#        75248
#        86322
#        96003
#        113709
#        126288
#
# Disc length: 1776 seconds
#
# Revision: 0
# Processed by: cddbd v1.5.2PL0 Copyright (c) Steve Scherf et al.
# Submitted via: ExactAudioCopy v0.95b4
#
DISCID=8006ee0a
DTITLE=Randy Keith - These Things
DYEAR=2005
DGENRE=Bluegrass
TTITLE0=These Things
TTITLE1=Old Man in the Park
TTITLE2=Woke me at Midnight
TTITLE3=Model Church
TTITLE4=Golden Years
TTITLE5=Scruggs Shuffle
TTITLE6=Little Thing About You
TTITLE7=Are You Felling Lonely
TTITLE8=Rambling Out of Me
TTITLE9=Mandolin Picks and Fiddle Sticks
EXTD=
EXTT0=
EXTT1=
EXTT2=
EXTT3=
EXTT4=
EXTT5=
EXTT6=
EXTT7=
EXTT8=
EXTT9=
PLAYORDER=
